<mxfile host="app.diagrams.net" agent="Mozilla/5.0 (Macintosh; Intel Mac OS X 10_15_7) AppleWebKit/537.36 (KHTML, like Gecko) Chrome/135.0.0.0 Safari/537.36" version="26.2.14">
  <diagram name="Page-1" id="2d3GKwP5qU1ezeMYMR1z">
    <mxGraphModel dx="3222" dy="2620" grid="1" gridSize="10" guides="1" tooltips="1" connect="1" arrows="1" fold="1" page="1" pageScale="1" pageWidth="850" pageHeight="1100" math="0" shadow="0">
      <root>
        <mxCell id="0" />
        <mxCell id="1" parent="0" />
        <mxCell id="CmpOgk4a6zGjAiBtdHNY-1" value="SPM" style="rounded=0;whiteSpace=wrap;html=1;fillColor=#f8cecc;strokeColor=#b85450;shadow=1;" vertex="1" parent="1">
          <mxGeometry x="80" y="160" width="120" height="40" as="geometry" />
        </mxCell>
        <mxCell id="CmpOgk4a6zGjAiBtdHNY-2" value="SPM" style="rounded=0;whiteSpace=wrap;html=1;fillColor=#f8cecc;strokeColor=#b85450;shadow=1;" vertex="1" parent="1">
          <mxGeometry x="240" y="160" width="120" height="40" as="geometry" />
        </mxCell>
        <mxCell id="CmpOgk4a6zGjAiBtdHNY-4" value="SPM" style="rounded=0;whiteSpace=wrap;html=1;fillColor=#f8cecc;strokeColor=#b85450;shadow=1;" vertex="1" parent="1">
          <mxGeometry x="400" y="160" width="120" height="40" as="geometry" />
        </mxCell>
        <mxCell id="CmpOgk4a6zGjAiBtdHNY-5" value="SPM" style="rounded=0;whiteSpace=wrap;html=1;fillColor=#f8cecc;strokeColor=#b85450;" vertex="1" parent="1">
          <mxGeometry x="560" y="160" width="120" height="40" as="geometry" />
        </mxCell>
        <mxCell id="CmpOgk4a6zGjAiBtdHNY-7" value="SPM" style="rounded=0;whiteSpace=wrap;html=1;fillColor=#f8cecc;strokeColor=#b85450;" vertex="1" parent="1">
          <mxGeometry x="720" y="160" width="120" height="40" as="geometry" />
        </mxCell>
        <mxCell id="CmpOgk4a6zGjAiBtdHNY-8" value="SPM" style="rounded=0;whiteSpace=wrap;html=1;fillColor=#f8cecc;strokeColor=#b85450;" vertex="1" parent="1">
          <mxGeometry x="880" y="160" width="120" height="40" as="geometry" />
        </mxCell>
        <mxCell id="CmpOgk4a6zGjAiBtdHNY-36" value="" style="edgeStyle=orthogonalEdgeStyle;rounded=0;orthogonalLoop=1;jettySize=auto;html=1;" edge="1" parent="1" source="CmpOgk4a6zGjAiBtdHNY-9" target="CmpOgk4a6zGjAiBtdHNY-17">
          <mxGeometry relative="1" as="geometry" />
        </mxCell>
        <mxCell id="CmpOgk4a6zGjAiBtdHNY-9" value="SPM" style="rounded=0;whiteSpace=wrap;html=1;fillColor=#f8cecc;strokeColor=#b85450;" vertex="1" parent="1">
          <mxGeometry x="1040" y="160" width="120" height="40" as="geometry" />
        </mxCell>
        <mxCell id="CmpOgk4a6zGjAiBtdHNY-10" value="SPM" style="rounded=0;whiteSpace=wrap;html=1;fillColor=#f8cecc;strokeColor=#b85450;" vertex="1" parent="1">
          <mxGeometry x="1200" y="160" width="120" height="40" as="geometry" />
        </mxCell>
        <mxCell id="CmpOgk4a6zGjAiBtdHNY-11" value="SPM" style="rounded=0;whiteSpace=wrap;html=1;fillColor=#f8cecc;strokeColor=#b85450;" vertex="1" parent="1">
          <mxGeometry x="80" y="280" width="120" height="40" as="geometry" />
        </mxCell>
        <mxCell id="CmpOgk4a6zGjAiBtdHNY-12" value="SPM" style="rounded=0;whiteSpace=wrap;html=1;fillColor=#f8cecc;strokeColor=#b85450;" vertex="1" parent="1">
          <mxGeometry x="240" y="280" width="120" height="40" as="geometry" />
        </mxCell>
        <mxCell id="CmpOgk4a6zGjAiBtdHNY-13" value="SPM" style="rounded=0;whiteSpace=wrap;html=1;fillColor=#f8cecc;strokeColor=#b85450;" vertex="1" parent="1">
          <mxGeometry x="400" y="280" width="120" height="40" as="geometry" />
        </mxCell>
        <mxCell id="CmpOgk4a6zGjAiBtdHNY-14" value="SPM" style="rounded=0;whiteSpace=wrap;html=1;fillColor=#f8cecc;strokeColor=#b85450;" vertex="1" parent="1">
          <mxGeometry x="560" y="280" width="120" height="40" as="geometry" />
        </mxCell>
        <mxCell id="CmpOgk4a6zGjAiBtdHNY-15" value="SPM" style="rounded=0;whiteSpace=wrap;html=1;fillColor=#f8cecc;strokeColor=#b85450;dashed=1;dashPattern=12 12;strokeWidth=3;" vertex="1" parent="1">
          <mxGeometry x="720" y="280" width="120" height="40" as="geometry" />
        </mxCell>
        <mxCell id="CmpOgk4a6zGjAiBtdHNY-16" value="SPM" style="rounded=0;whiteSpace=wrap;html=1;fillColor=#f8cecc;strokeColor=#b85450;dashed=1;dashPattern=12 12;strokeWidth=3;" vertex="1" parent="1">
          <mxGeometry x="880" y="280" width="120" height="40" as="geometry" />
        </mxCell>
        <mxCell id="CmpOgk4a6zGjAiBtdHNY-17" value="SPM" style="rounded=0;whiteSpace=wrap;html=1;fillColor=#f8cecc;strokeColor=#b85450;" vertex="1" parent="1">
          <mxGeometry x="1040" y="280" width="120" height="40" as="geometry" />
        </mxCell>
        <mxCell id="CmpOgk4a6zGjAiBtdHNY-18" value="SPM" style="rounded=0;whiteSpace=wrap;html=1;fillColor=#f8cecc;strokeColor=#b85450;" vertex="1" parent="1">
          <mxGeometry x="1200" y="280" width="120" height="40" as="geometry" />
        </mxCell>
        <mxCell id="CmpOgk4a6zGjAiBtdHNY-19" value="" style="endArrow=none;dashed=1;html=1;dashPattern=1 3;strokeWidth=2;rounded=0;" edge="1" parent="1">
          <mxGeometry width="50" height="50" relative="1" as="geometry">
            <mxPoint x="40" y="240" as="sourcePoint" />
            <mxPoint x="1360" y="240" as="targetPoint" />
          </mxGeometry>
        </mxCell>
        <mxCell id="CmpOgk4a6zGjAiBtdHNY-20" value="" style="endArrow=none;dashed=1;html=1;rounded=0;" edge="1" parent="1">
          <mxGeometry width="50" height="50" relative="1" as="geometry">
            <mxPoint x="700" y="360" as="sourcePoint" />
            <mxPoint x="700" y="80" as="targetPoint" />
          </mxGeometry>
        </mxCell>
        <mxCell id="CmpOgk4a6zGjAiBtdHNY-21" value="" style="endArrow=classic;html=1;rounded=0;entryX=0.5;entryY=0;entryDx=0;entryDy=0;shadow=1;" edge="1" parent="1" target="CmpOgk4a6zGjAiBtdHNY-5">
          <mxGeometry width="50" height="50" relative="1" as="geometry">
            <mxPoint x="560" as="sourcePoint" />
            <mxPoint x="730" y="340" as="targetPoint" />
          </mxGeometry>
        </mxCell>
        <mxCell id="CmpOgk4a6zGjAiBtdHNY-22" value="" style="endArrow=classic;html=1;rounded=0;entryX=0.5;entryY=0;entryDx=0;entryDy=0;shadow=1;" edge="1" parent="1">
          <mxGeometry width="50" height="50" relative="1" as="geometry">
            <mxPoint x="400" as="sourcePoint" />
            <mxPoint x="460" y="160" as="targetPoint" />
          </mxGeometry>
        </mxCell>
        <mxCell id="CmpOgk4a6zGjAiBtdHNY-23" value="" style="endArrow=classic;html=1;rounded=0;entryX=0.5;entryY=0;entryDx=0;entryDy=0;shadow=1;" edge="1" parent="1">
          <mxGeometry width="50" height="50" relative="1" as="geometry">
            <mxPoint x="240" as="sourcePoint" />
            <mxPoint x="300" y="160" as="targetPoint" />
          </mxGeometry>
        </mxCell>
        <mxCell id="CmpOgk4a6zGjAiBtdHNY-24" value="" style="endArrow=classic;html=1;rounded=0;entryX=0.5;entryY=0;entryDx=0;entryDy=0;shadow=1;" edge="1" parent="1">
          <mxGeometry width="50" height="50" relative="1" as="geometry">
            <mxPoint x="80" as="sourcePoint" />
            <mxPoint x="140" y="160" as="targetPoint" />
          </mxGeometry>
        </mxCell>
        <mxCell id="CmpOgk4a6zGjAiBtdHNY-25" value="" style="endArrow=classic;html=1;rounded=0;entryX=0.5;entryY=0;entryDx=0;entryDy=0;" edge="1" parent="1">
          <mxGeometry width="50" height="50" relative="1" as="geometry">
            <mxPoint x="1200" as="sourcePoint" />
            <mxPoint x="1260" y="160" as="targetPoint" />
          </mxGeometry>
        </mxCell>
        <mxCell id="CmpOgk4a6zGjAiBtdHNY-27" value="" style="endArrow=classic;html=1;rounded=0;entryX=0.5;entryY=0;entryDx=0;entryDy=0;" edge="1" parent="1">
          <mxGeometry width="50" height="50" relative="1" as="geometry">
            <mxPoint x="880" as="sourcePoint" />
            <mxPoint x="940" y="160" as="targetPoint" />
          </mxGeometry>
        </mxCell>
        <mxCell id="CmpOgk4a6zGjAiBtdHNY-28" value="" style="endArrow=classic;html=1;rounded=0;entryX=0.5;entryY=0;entryDx=0;entryDy=0;" edge="1" parent="1">
          <mxGeometry width="50" height="50" relative="1" as="geometry">
            <mxPoint x="720" as="sourcePoint" />
            <mxPoint x="780" y="160" as="targetPoint" />
          </mxGeometry>
        </mxCell>
        <mxCell id="CmpOgk4a6zGjAiBtdHNY-29" value="" style="endArrow=classic;html=1;rounded=0;entryX=0.5;entryY=0;entryDx=0;entryDy=0;shadow=1;" edge="1" parent="1">
          <mxGeometry width="50" height="50" relative="1" as="geometry">
            <mxPoint x="620" y="320" as="sourcePoint" />
            <mxPoint x="680" y="480" as="targetPoint" />
          </mxGeometry>
        </mxCell>
        <mxCell id="CmpOgk4a6zGjAiBtdHNY-30" value="" style="endArrow=classic;html=1;rounded=0;entryX=0.5;entryY=0;entryDx=0;entryDy=0;shadow=1;" edge="1" parent="1">
          <mxGeometry width="50" height="50" relative="1" as="geometry">
            <mxPoint x="460" y="320" as="sourcePoint" />
            <mxPoint x="520" y="480" as="targetPoint" />
          </mxGeometry>
        </mxCell>
        <mxCell id="CmpOgk4a6zGjAiBtdHNY-31" value="" style="endArrow=classic;html=1;rounded=0;entryX=0.5;entryY=0;entryDx=0;entryDy=0;shadow=1;" edge="1" parent="1">
          <mxGeometry width="50" height="50" relative="1" as="geometry">
            <mxPoint x="300" y="320" as="sourcePoint" />
            <mxPoint x="360" y="480" as="targetPoint" />
          </mxGeometry>
        </mxCell>
        <mxCell id="CmpOgk4a6zGjAiBtdHNY-32" value="" style="endArrow=classic;html=1;rounded=0;entryX=0.5;entryY=0;entryDx=0;entryDy=0;shadow=1;" edge="1" parent="1">
          <mxGeometry width="50" height="50" relative="1" as="geometry">
            <mxPoint x="140" y="320" as="sourcePoint" />
            <mxPoint x="200" y="480" as="targetPoint" />
          </mxGeometry>
        </mxCell>
        <mxCell id="CmpOgk4a6zGjAiBtdHNY-34" value="" style="curved=1;endArrow=classic;html=1;rounded=0;exitX=0.25;exitY=1;exitDx=0;exitDy=0;entryX=0.75;entryY=1;entryDx=0;entryDy=0;" edge="1" parent="1" source="CmpOgk4a6zGjAiBtdHNY-17" target="CmpOgk4a6zGjAiBtdHNY-17">
          <mxGeometry width="50" height="50" relative="1" as="geometry">
            <mxPoint x="680" y="390" as="sourcePoint" />
            <mxPoint x="730" y="340" as="targetPoint" />
            <Array as="points">
              <mxPoint x="1040" y="400" />
              <mxPoint x="1160" y="400" />
            </Array>
          </mxGeometry>
        </mxCell>
        <mxCell id="CmpOgk4a6zGjAiBtdHNY-35" value="Reduce Engine&lt;div&gt;Computer&lt;/div&gt;" style="edgeLabel;html=1;align=center;verticalAlign=middle;resizable=0;points=[];" vertex="1" connectable="0" parent="CmpOgk4a6zGjAiBtdHNY-34">
          <mxGeometry x="0.0052" y="3" relative="1" as="geometry">
            <mxPoint y="1" as="offset" />
          </mxGeometry>
        </mxCell>
        <mxCell id="CmpOgk4a6zGjAiBtdHNY-37" value="" style="endArrow=classic;html=1;rounded=0;entryX=0.5;entryY=1;entryDx=0;entryDy=0;" edge="1" parent="1" target="CmpOgk4a6zGjAiBtdHNY-18">
          <mxGeometry width="50" height="50" relative="1" as="geometry">
            <mxPoint x="1260" y="520" as="sourcePoint" />
            <mxPoint x="1310" y="410" as="targetPoint" />
          </mxGeometry>
        </mxCell>
        <mxCell id="CmpOgk4a6zGjAiBtdHNY-39" value="DME" style="edgeLabel;html=1;align=center;verticalAlign=middle;resizable=0;points=[];" vertex="1" connectable="0" parent="CmpOgk4a6zGjAiBtdHNY-37">
          <mxGeometry x="-0.025" relative="1" as="geometry">
            <mxPoint x="-1" as="offset" />
          </mxGeometry>
        </mxCell>
        <mxCell id="CmpOgk4a6zGjAiBtdHNY-38" value="HBM Memory" style="rounded=0;whiteSpace=wrap;html=1;fillColor=#dae8fc;strokeColor=#6c8ebf;" vertex="1" parent="1">
          <mxGeometry x="1200" y="520" width="120" height="40" as="geometry" />
        </mxCell>
        <mxCell id="CmpOgk4a6zGjAiBtdHNY-40" value="HBM" style="rounded=0;whiteSpace=wrap;html=1;fillColor=#dae8fc;strokeColor=#6c8ebf;shadow=1;" vertex="1" parent="1">
          <mxGeometry x="80" y="760" width="120" height="40" as="geometry" />
        </mxCell>
        <mxCell id="CmpOgk4a6zGjAiBtdHNY-41" value="HBM" style="rounded=0;whiteSpace=wrap;html=1;fillColor=#dae8fc;strokeColor=#6c8ebf;shadow=1;" vertex="1" parent="1">
          <mxGeometry x="240" y="760" width="120" height="40" as="geometry" />
        </mxCell>
        <mxCell id="CmpOgk4a6zGjAiBtdHNY-42" value="HBM" style="rounded=0;whiteSpace=wrap;html=1;fillColor=#dae8fc;strokeColor=#6c8ebf;shadow=1;" vertex="1" parent="1">
          <mxGeometry x="400" y="760" width="120" height="40" as="geometry" />
        </mxCell>
        <mxCell id="CmpOgk4a6zGjAiBtdHNY-43" value="HBM" style="rounded=0;whiteSpace=wrap;html=1;fillColor=#dae8fc;strokeColor=#6c8ebf;" vertex="1" parent="1">
          <mxGeometry x="560" y="760" width="120" height="40" as="geometry" />
        </mxCell>
        <mxCell id="CmpOgk4a6zGjAiBtdHNY-44" value="HBM" style="rounded=0;whiteSpace=wrap;html=1;fillColor=#dae8fc;strokeColor=#6c8ebf;" vertex="1" parent="1">
          <mxGeometry x="720" y="760" width="120" height="40" as="geometry" />
        </mxCell>
        <mxCell id="CmpOgk4a6zGjAiBtdHNY-45" value="HBM" style="rounded=0;whiteSpace=wrap;html=1;fillColor=#dae8fc;strokeColor=#6c8ebf;" vertex="1" parent="1">
          <mxGeometry x="880" y="760" width="120" height="40" as="geometry" />
        </mxCell>
        <mxCell id="CmpOgk4a6zGjAiBtdHNY-46" value="" style="edgeStyle=orthogonalEdgeStyle;rounded=0;orthogonalLoop=1;jettySize=auto;html=1;exitX=0.5;exitY=1;exitDx=0;exitDy=0;" edge="1" parent="1" source="CmpOgk4a6zGjAiBtdHNY-75" target="CmpOgk4a6zGjAiBtdHNY-55">
          <mxGeometry relative="1" as="geometry">
            <mxPoint x="1100" y="950" as="sourcePoint" />
          </mxGeometry>
        </mxCell>
        <mxCell id="CmpOgk4a6zGjAiBtdHNY-47" value="HBM" style="rounded=0;whiteSpace=wrap;html=1;fillColor=#dae8fc;strokeColor=#6c8ebf;" vertex="1" parent="1">
          <mxGeometry x="1040" y="760" width="120" height="40" as="geometry" />
        </mxCell>
        <mxCell id="CmpOgk4a6zGjAiBtdHNY-77" value="" style="edgeStyle=orthogonalEdgeStyle;rounded=0;orthogonalLoop=1;jettySize=auto;html=1;" edge="1" parent="1" source="CmpOgk4a6zGjAiBtdHNY-48" target="CmpOgk4a6zGjAiBtdHNY-76">
          <mxGeometry relative="1" as="geometry" />
        </mxCell>
        <mxCell id="CmpOgk4a6zGjAiBtdHNY-48" value="HBM" style="rounded=0;whiteSpace=wrap;html=1;fillColor=#dae8fc;strokeColor=#6c8ebf;" vertex="1" parent="1">
          <mxGeometry x="1200" y="760" width="120" height="40" as="geometry" />
        </mxCell>
        <mxCell id="CmpOgk4a6zGjAiBtdHNY-49" value="SPM" style="rounded=0;whiteSpace=wrap;html=1;fillColor=#f8cecc;strokeColor=#b85450;" vertex="1" parent="1">
          <mxGeometry x="80" y="1000" width="120" height="40" as="geometry" />
        </mxCell>
        <mxCell id="CmpOgk4a6zGjAiBtdHNY-50" value="SPM" style="rounded=0;whiteSpace=wrap;html=1;fillColor=#f8cecc;strokeColor=#b85450;" vertex="1" parent="1">
          <mxGeometry x="240" y="1000" width="120" height="40" as="geometry" />
        </mxCell>
        <mxCell id="CmpOgk4a6zGjAiBtdHNY-51" value="SPM" style="rounded=0;whiteSpace=wrap;html=1;fillColor=#f8cecc;strokeColor=#b85450;" vertex="1" parent="1">
          <mxGeometry x="400" y="1000" width="120" height="40" as="geometry" />
        </mxCell>
        <mxCell id="CmpOgk4a6zGjAiBtdHNY-52" value="SPM" style="rounded=0;whiteSpace=wrap;html=1;fillColor=#f8cecc;strokeColor=#b85450;" vertex="1" parent="1">
          <mxGeometry x="560" y="1000" width="120" height="40" as="geometry" />
        </mxCell>
        <mxCell id="CmpOgk4a6zGjAiBtdHNY-53" value="SPM" style="rounded=0;whiteSpace=wrap;html=1;fillColor=#f8cecc;strokeColor=#b85450;dashed=1;dashPattern=12 12;strokeWidth=3;" vertex="1" parent="1">
          <mxGeometry x="720" y="1000" width="120" height="40" as="geometry" />
        </mxCell>
        <mxCell id="CmpOgk4a6zGjAiBtdHNY-54" value="SPM" style="rounded=0;whiteSpace=wrap;html=1;fillColor=#f8cecc;strokeColor=#b85450;dashed=1;dashPattern=12 12;strokeWidth=3;" vertex="1" parent="1">
          <mxGeometry x="880" y="1000" width="120" height="40" as="geometry" />
        </mxCell>
        <mxCell id="CmpOgk4a6zGjAiBtdHNY-55" value="SPM" style="rounded=0;whiteSpace=wrap;html=1;fillColor=#f8cecc;strokeColor=#b85450;" vertex="1" parent="1">
          <mxGeometry x="1040" y="1000" width="120" height="40" as="geometry" />
        </mxCell>
        <mxCell id="CmpOgk4a6zGjAiBtdHNY-56" value="SPM" style="rounded=0;whiteSpace=wrap;html=1;fillColor=#f8cecc;strokeColor=#b85450;" vertex="1" parent="1">
          <mxGeometry x="1200" y="1000" width="120" height="40" as="geometry" />
        </mxCell>
        <mxCell id="CmpOgk4a6zGjAiBtdHNY-57" value="" style="endArrow=none;dashed=1;html=1;dashPattern=1 3;strokeWidth=2;rounded=0;" edge="1" parent="1">
          <mxGeometry width="50" height="50" relative="1" as="geometry">
            <mxPoint x="40" y="960" as="sourcePoint" />
            <mxPoint x="1360" y="960" as="targetPoint" />
          </mxGeometry>
        </mxCell>
        <mxCell id="CmpOgk4a6zGjAiBtdHNY-58" value="" style="endArrow=none;dashed=1;html=1;rounded=0;" edge="1" parent="1">
          <mxGeometry width="50" height="50" relative="1" as="geometry">
            <mxPoint x="700" y="1080" as="sourcePoint" />
            <mxPoint x="700" y="800" as="targetPoint" />
          </mxGeometry>
        </mxCell>
        <mxCell id="CmpOgk4a6zGjAiBtdHNY-59" value="" style="endArrow=classic;html=1;rounded=0;entryX=0.5;entryY=0;entryDx=0;entryDy=0;shadow=1;" edge="1" parent="1" target="CmpOgk4a6zGjAiBtdHNY-43">
          <mxGeometry width="50" height="50" relative="1" as="geometry">
            <mxPoint x="560" y="600" as="sourcePoint" />
            <mxPoint x="730" y="940" as="targetPoint" />
          </mxGeometry>
        </mxCell>
        <mxCell id="CmpOgk4a6zGjAiBtdHNY-60" value="" style="endArrow=classic;html=1;rounded=0;entryX=0.5;entryY=0;entryDx=0;entryDy=0;shadow=1;" edge="1" parent="1">
          <mxGeometry width="50" height="50" relative="1" as="geometry">
            <mxPoint x="400" y="600" as="sourcePoint" />
            <mxPoint x="460" y="760" as="targetPoint" />
          </mxGeometry>
        </mxCell>
        <mxCell id="CmpOgk4a6zGjAiBtdHNY-61" value="" style="endArrow=classic;html=1;rounded=0;entryX=0.5;entryY=0;entryDx=0;entryDy=0;shadow=1;" edge="1" parent="1">
          <mxGeometry width="50" height="50" relative="1" as="geometry">
            <mxPoint x="240" y="600" as="sourcePoint" />
            <mxPoint x="300" y="760" as="targetPoint" />
          </mxGeometry>
        </mxCell>
        <mxCell id="CmpOgk4a6zGjAiBtdHNY-62" value="" style="endArrow=classic;html=1;rounded=0;entryX=0.5;entryY=0;entryDx=0;entryDy=0;shadow=1;" edge="1" parent="1">
          <mxGeometry width="50" height="50" relative="1" as="geometry">
            <mxPoint x="80" y="600" as="sourcePoint" />
            <mxPoint x="140" y="760" as="targetPoint" />
          </mxGeometry>
        </mxCell>
        <mxCell id="CmpOgk4a6zGjAiBtdHNY-63" value="" style="endArrow=classic;html=1;rounded=0;entryX=0.5;entryY=0;entryDx=0;entryDy=0;" edge="1" parent="1">
          <mxGeometry width="50" height="50" relative="1" as="geometry">
            <mxPoint x="1200" y="600" as="sourcePoint" />
            <mxPoint x="1260" y="760" as="targetPoint" />
          </mxGeometry>
        </mxCell>
        <mxCell id="CmpOgk4a6zGjAiBtdHNY-64" value="" style="endArrow=classic;html=1;rounded=0;entryX=0.5;entryY=0;entryDx=0;entryDy=0;" edge="1" parent="1">
          <mxGeometry width="50" height="50" relative="1" as="geometry">
            <mxPoint x="880" y="600" as="sourcePoint" />
            <mxPoint x="940" y="760" as="targetPoint" />
          </mxGeometry>
        </mxCell>
        <mxCell id="CmpOgk4a6zGjAiBtdHNY-65" value="" style="endArrow=classic;html=1;rounded=0;entryX=0.5;entryY=0;entryDx=0;entryDy=0;" edge="1" parent="1">
          <mxGeometry width="50" height="50" relative="1" as="geometry">
            <mxPoint x="720" y="600" as="sourcePoint" />
            <mxPoint x="780" y="760" as="targetPoint" />
          </mxGeometry>
        </mxCell>
        <mxCell id="CmpOgk4a6zGjAiBtdHNY-66" value="" style="endArrow=classic;html=1;rounded=0;entryX=0.5;entryY=0;entryDx=0;entryDy=0;shadow=1;" edge="1" parent="1">
          <mxGeometry width="50" height="50" relative="1" as="geometry">
            <mxPoint x="620" y="1040" as="sourcePoint" />
            <mxPoint x="680" y="1200" as="targetPoint" />
          </mxGeometry>
        </mxCell>
        <mxCell id="CmpOgk4a6zGjAiBtdHNY-67" value="" style="endArrow=classic;html=1;rounded=0;entryX=0.5;entryY=0;entryDx=0;entryDy=0;shadow=1;" edge="1" parent="1">
          <mxGeometry width="50" height="50" relative="1" as="geometry">
            <mxPoint x="460" y="1040" as="sourcePoint" />
            <mxPoint x="520" y="1200" as="targetPoint" />
          </mxGeometry>
        </mxCell>
        <mxCell id="CmpOgk4a6zGjAiBtdHNY-68" value="" style="endArrow=classic;html=1;rounded=0;entryX=0.5;entryY=0;entryDx=0;entryDy=0;shadow=1;" edge="1" parent="1">
          <mxGeometry width="50" height="50" relative="1" as="geometry">
            <mxPoint x="300" y="1040" as="sourcePoint" />
            <mxPoint x="360" y="1200" as="targetPoint" />
          </mxGeometry>
        </mxCell>
        <mxCell id="CmpOgk4a6zGjAiBtdHNY-69" value="" style="endArrow=classic;html=1;rounded=0;entryX=0.5;entryY=0;entryDx=0;entryDy=0;shadow=1;" edge="1" parent="1">
          <mxGeometry width="50" height="50" relative="1" as="geometry">
            <mxPoint x="140" y="1040" as="sourcePoint" />
            <mxPoint x="200" y="1200" as="targetPoint" />
          </mxGeometry>
        </mxCell>
        <mxCell id="CmpOgk4a6zGjAiBtdHNY-70" value="" style="curved=1;endArrow=classic;html=1;rounded=0;exitX=0.25;exitY=1;exitDx=0;exitDy=0;entryX=0.75;entryY=1;entryDx=0;entryDy=0;" edge="1" parent="1" source="CmpOgk4a6zGjAiBtdHNY-55" target="CmpOgk4a6zGjAiBtdHNY-55">
          <mxGeometry width="50" height="50" relative="1" as="geometry">
            <mxPoint x="680" y="1110" as="sourcePoint" />
            <mxPoint x="730" y="1060" as="targetPoint" />
            <Array as="points">
              <mxPoint x="1040" y="1120" />
              <mxPoint x="1160" y="1120" />
            </Array>
          </mxGeometry>
        </mxCell>
        <mxCell id="CmpOgk4a6zGjAiBtdHNY-71" value="Reduce Engine&lt;div&gt;Computer&lt;/div&gt;" style="edgeLabel;html=1;align=center;verticalAlign=middle;resizable=0;points=[];" vertex="1" connectable="0" parent="CmpOgk4a6zGjAiBtdHNY-70">
          <mxGeometry x="0.0052" y="3" relative="1" as="geometry">
            <mxPoint y="1" as="offset" />
          </mxGeometry>
        </mxCell>
        <mxCell id="CmpOgk4a6zGjAiBtdHNY-72" value="" style="endArrow=classic;html=1;rounded=0;entryX=0.5;entryY=1;entryDx=0;entryDy=0;" edge="1" parent="1" target="CmpOgk4a6zGjAiBtdHNY-56">
          <mxGeometry width="50" height="50" relative="1" as="geometry">
            <mxPoint x="1260" y="1240" as="sourcePoint" />
            <mxPoint x="1310" y="1130" as="targetPoint" />
          </mxGeometry>
        </mxCell>
        <mxCell id="CmpOgk4a6zGjAiBtdHNY-73" value="DME" style="edgeLabel;html=1;align=center;verticalAlign=middle;resizable=0;points=[];" vertex="1" connectable="0" parent="CmpOgk4a6zGjAiBtdHNY-72">
          <mxGeometry x="-0.025" relative="1" as="geometry">
            <mxPoint x="-1" as="offset" />
          </mxGeometry>
        </mxCell>
        <mxCell id="CmpOgk4a6zGjAiBtdHNY-74" value="HBM Memory" style="rounded=0;whiteSpace=wrap;html=1;fillColor=#dae8fc;strokeColor=#6c8ebf;" vertex="1" parent="1">
          <mxGeometry x="1200" y="1240" width="120" height="40" as="geometry" />
        </mxCell>
        <mxCell id="CmpOgk4a6zGjAiBtdHNY-75" value="SPM" style="rounded=0;whiteSpace=wrap;html=1;fillColor=#f8cecc;strokeColor=#b85450;" vertex="1" parent="1">
          <mxGeometry x="1040" y="880" width="120" height="40" as="geometry" />
        </mxCell>
        <mxCell id="CmpOgk4a6zGjAiBtdHNY-76" value="SPM" style="rounded=0;whiteSpace=wrap;html=1;fillColor=#f8cecc;strokeColor=#b85450;" vertex="1" parent="1">
          <mxGeometry x="1200" y="880" width="120" height="40" as="geometry" />
        </mxCell>
        <mxCell id="CmpOgk4a6zGjAiBtdHNY-78" value="纯SPM方案SPM内存使用" style="text;html=1;align=center;verticalAlign=middle;whiteSpace=wrap;rounded=0;" vertex="1" parent="1">
          <mxGeometry x="-150" width="170" height="30" as="geometry" />
        </mxCell>
        <mxCell id="CmpOgk4a6zGjAiBtdHNY-79" value="HBM&amp;amp;SPM混合方案SPM内存使用" style="text;html=1;align=center;verticalAlign=middle;whiteSpace=wrap;rounded=0;" vertex="1" parent="1">
          <mxGeometry x="-170" y="600" width="200" height="30" as="geometry" />
        </mxCell>
      </root>
    </mxGraphModel>
  </diagram>
</mxfile>
